<?xml version="1.0" encoding="utf-8"?>
<!-- Generator: Adobe Illustrator 16.0.0, SVG Export Plug-In . SVG Version: 6.00 Build 0)  -->
<!DOCTYPE svg PUBLIC "-//W3C//DTD SVG 1.1//EN" "http://www.w3.org/Graphics/SVG/1.1/DTD/svg11.dtd">
<svg version="1.1" id="Layer_1" xmlns="http://www.w3.org/2000/svg" xmlns:xlink="http://www.w3.org/1999/xlink" x="0px" y="0px"
	 width="1000px" height="1000px" viewBox="0 0 1000 1000" enable-background="new 0 0 1000 1000" xml:space="preserve">
<polygon fill="#0042AA" points="195.576,653 -1,653 -1,359 195,359 195,445.767 1002,445.569 1002,557.723 714.102,558.065 
	714.618,653 "/>
<polygon opacity="0.5" fill="#0042AA" points="899,734.831 503.5,963.007 108,734.832 108,278.482 503.5,50.306 899,278.482 "/>
<g>
	<path fill="#FFFFFF" d="M12.121,501.455c0-13.066,2.874-23.128,8.624-30.184c5.749-7.056,13.961-10.584,24.64-10.584
		c5.6,0,10.489,0.971,14.672,2.912c4.181,1.943,7.653,4.704,10.416,8.288c2.762,3.584,4.816,7.878,6.16,12.88
		c1.344,5.003,2.016,10.567,2.016,16.688c0,13.066-2.895,23.128-8.68,30.184c-5.787,7.057-13.982,10.584-24.584,10.584
		c-5.675,0-10.603-0.971-14.784-2.912c-4.182-1.94-7.635-4.703-10.36-8.287c-2.727-3.584-4.76-7.877-6.104-12.881
		C12.793,513.141,12.121,507.578,12.121,501.455z M28.249,501.455c0,3.958,0.336,7.598,1.008,10.92
		c0.672,3.323,1.697,6.18,3.08,8.568c1.38,2.391,3.153,4.256,5.32,5.6c2.165,1.344,4.741,2.016,7.728,2.016
		c5.45,0,9.669-2.128,12.656-6.384c2.986-4.256,4.48-11.161,4.48-20.72c0-3.808-0.318-7.354-0.952-10.64
		c-0.635-3.285-1.624-6.16-2.968-8.624c-1.344-2.464-3.099-4.386-5.264-5.768c-2.167-1.381-4.816-2.072-7.952-2.072
		c-5.451,0-9.67,2.184-12.656,6.552C29.742,485.271,28.249,492.122,28.249,501.455z"/>
	<path fill="#FFFFFF" d="M107.098,500.783l-21.84-38.528h18.48l12.096,22.624l2.688,7.952l2.576-7.952l12.656-22.624h16.688
		l-22.624,37.744l23.744,40.655h-18.256l-13.776-24.191l-3.024-8.288l-2.912,8.288l-13.888,24.191H83.018L107.098,500.783z"/>
	<path fill="#FFFFFF" d="M164.665,462.255h46.48v13.664h-31.136v19.376h28.672v13.664h-28.672v31.695h-15.344V462.255z"/>
	<path fill="#FFFFFF" d="M224.248,501.455c0-13.066,2.874-23.128,8.624-30.184c5.749-7.056,13.961-10.584,24.64-10.584
		c5.6,0,10.489,0.971,14.672,2.912c4.181,1.943,7.653,4.704,10.416,8.288c2.762,3.584,4.816,7.878,6.16,12.88
		c1.344,5.003,2.016,10.567,2.016,16.688c0,13.066-2.895,23.128-8.68,30.184c-5.787,7.057-13.982,10.584-24.584,10.584
		c-5.675,0-10.603-0.971-14.784-2.912c-4.182-1.94-7.635-4.703-10.36-8.287c-2.727-3.584-4.76-7.877-6.104-12.881
		C224.92,513.141,224.248,507.578,224.248,501.455z M240.376,501.455c0,3.958,0.336,7.598,1.008,10.92
		c0.672,3.323,1.697,6.18,3.08,8.568c1.38,2.391,3.153,4.256,5.32,5.6c2.165,1.344,4.741,2.016,7.728,2.016
		c5.45,0,9.669-2.128,12.656-6.384c2.986-4.256,4.48-11.161,4.48-20.72c0-3.808-0.318-7.354-0.952-10.64
		c-0.635-3.285-1.624-6.16-2.968-8.624c-1.344-2.464-3.099-4.386-5.264-5.768c-2.167-1.381-4.816-2.072-7.952-2.072
		c-5.451,0-9.67,2.184-12.656,6.552C241.869,485.271,240.376,492.122,240.376,501.455z"/>
	<path fill="#FFFFFF" d="M306.904,463.039c1.716-0.297,3.564-0.577,5.544-0.84c1.978-0.261,3.957-0.465,5.936-0.616
		c1.978-0.149,3.9-0.261,5.768-0.336c1.866-0.073,3.584-0.112,5.152-0.112c3.657,0,7.261,0.336,10.808,1.008
		c3.545,0.672,6.72,1.831,9.52,3.472c2.8,1.643,5.04,3.902,6.72,6.776c1.68,2.875,2.52,6.479,2.52,10.808
		c0,6.422-1.495,11.648-4.48,15.68c-2.987,4.031-6.982,6.832-11.984,8.4l5.488,3.472l17.92,29.903H348.12l-17.808-30.688
		l-8.064-1.456v32.144h-15.344V463.039z M330.424,474.799c-1.568,0-3.119,0.039-4.648,0.112c-1.531,0.075-2.707,0.224-3.528,0.448
		v22.736h6.496c4.256,0,7.653-0.969,10.192-2.912c2.538-1.94,3.808-5.152,3.808-9.632c0-3.36-1.046-5.992-3.136-7.896
		C337.517,475.751,334.456,474.799,330.424,474.799z"/>
	<path fill="#FFFFFF" d="M379.479,462.255c1.568-0.224,3.34-0.41,5.32-0.56c1.978-0.149,4.013-0.261,6.104-0.336
		c2.089-0.074,4.125-0.129,6.104-0.168c1.978-0.037,3.752-0.056,5.32-0.056c6.944,0,12.88,0.971,17.808,2.912
		c4.928,1.942,8.921,4.667,11.984,8.176c3.061,3.511,5.301,7.691,6.72,12.544c1.417,4.854,2.128,10.192,2.128,16.016
		c0,5.303-0.672,10.417-2.016,15.344c-1.344,4.928-3.584,9.296-6.72,13.104c-3.136,3.809-7.263,6.871-12.376,9.184
		c-5.115,2.314-11.443,3.473-18.984,3.473c-1.195,0-2.782-0.039-4.76-0.111c-1.979-0.076-4.032-0.168-6.16-0.281
		c-2.128-0.111-4.163-0.223-6.104-0.336c-1.942-0.111-3.398-0.242-4.368-0.392V462.255z M403.559,474.799
		c-1.643,0-3.304,0.039-4.984,0.112c-1.68,0.075-2.931,0.188-3.752,0.336v52.529c0.297,0.074,0.802,0.131,1.512,0.168
		c0.708,0.038,1.473,0.074,2.296,0.111c0.821,0.039,1.604,0.075,2.352,0.112c0.746,0.038,1.305,0.056,1.68,0.056
		c4.33,0,7.933-0.765,10.808-2.296c2.874-1.529,5.152-3.565,6.832-6.104c1.68-2.537,2.856-5.469,3.528-8.791
		c0.672-3.322,1.008-6.738,1.008-10.249c0-3.061-0.299-6.141-0.896-9.24c-0.599-3.098-1.699-5.88-3.304-8.344
		c-1.606-2.464-3.791-4.48-6.552-6.048C411.324,475.583,407.815,474.799,403.559,474.799z"/>
	<path fill="#FFFFFF" d="M546.244,475.919h-22.848v64.735h-15.344v-64.735h-22.959v-13.664h61.151V475.919z"/>
	<path fill="#FFFFFF" d="M559.348,463.039c1.717-0.297,3.564-0.577,5.543-0.84c1.979-0.261,3.957-0.465,5.938-0.616
		c1.977-0.149,3.9-0.261,5.768-0.336c1.865-0.073,3.584-0.112,5.152-0.112c3.656,0,7.26,0.336,10.807,1.008
		c3.547,0.672,6.721,1.831,9.521,3.472c2.799,1.643,5.039,3.902,6.719,6.776c1.68,2.875,2.521,6.479,2.521,10.808
		c0,6.422-1.496,11.648-4.48,15.68c-2.988,4.031-6.982,6.832-11.984,8.4l5.488,3.472l17.92,29.903h-17.697l-17.807-30.688
		l-8.064-1.456v32.144h-15.344V463.039z M582.867,474.799c-1.568,0-3.119,0.039-4.648,0.112c-1.531,0.075-2.707,0.224-3.527,0.448
		v22.736h6.496c4.256,0,7.652-0.969,10.191-2.912c2.537-1.94,3.809-5.152,3.809-9.632c0-3.36-1.047-5.992-3.137-7.896
		S586.9,474.799,582.867,474.799z"/>
	<path fill="#FFFFFF" d="M666.42,523.295h-24.08l-5.936,17.359h-15.344l28.223-78.959h11.313l28.225,78.959h-16.129L666.42,523.295z
		 M646.26,510.975h16.801l-5.824-17.472l-2.352-12.32h-0.561l-2.352,12.432L646.26,510.975z"/>
	<path fill="#FFFFFF" d="M702.26,462.255h15.344v78.399H702.26V462.255z"/>
	<path fill="#FFFFFF" d="M757.25,499.775l-6.16-12.32h-0.559l1.791,12.32v40.879h-14.561v-78.959h11.201l29.68,41.776l5.936,11.984
		h0.561l-1.793-11.984v-41.216h14.561v78.96h-11.199L757.25,499.775z"/>
	<path fill="#FFFFFF" d="M818.066,462.255h15.344v78.399h-15.344V462.255z"/>
	<path fill="#FFFFFF" d="M873.057,499.775l-6.16-12.32h-0.559l1.791,12.32v40.879h-14.561v-78.959h11.201l29.68,41.776l5.936,11.984
		h0.561l-1.793-11.984v-41.216h14.561v78.96h-11.199L873.057,499.775z"/>
	<path fill="#FFFFFF" d="M959.969,499.775h29.232v34.944c-3.137,2.615-6.889,4.519-11.256,5.712
		c-4.369,1.194-8.682,1.792-12.938,1.792c-5.002,0-9.65-0.783-13.943-2.352c-4.295-1.568-8.008-4.014-11.145-7.336
		c-3.135-3.322-5.6-7.561-7.391-12.713c-1.793-5.151-2.689-11.273-2.689-18.367c0-7.392,1.064-13.682,3.193-18.872
		c2.127-5.189,4.928-9.408,8.398-12.656c3.473-3.248,7.373-5.6,11.705-7.056c4.33-1.456,8.736-2.184,13.215-2.184
		c4.48,0,8.418,0.336,11.816,1.008c3.396,0.672,6.105,1.382,8.121,2.128l-3.137,12.88c-1.867-0.745-3.959-1.325-6.271-1.736
		c-2.316-0.41-5.264-0.616-8.848-0.616c-3.213,0-6.16,0.487-8.85,1.456c-2.688,0.971-5.021,2.559-7,4.76
		c-1.979,2.203-3.51,5.022-4.592,8.456c-1.082,3.435-1.623,7.616-1.623,12.543c0,4.705,0.521,8.756,1.568,12.152
		c1.045,3.398,2.5,6.199,4.367,8.4c1.865,2.203,4.049,3.826,6.553,4.871c2.5,1.047,5.168,1.568,8.008,1.568
		c1.939,0,3.844-0.241,5.711-0.729c1.865-0.484,3.434-1.212,4.705-2.184v-14.783l-16.912-1.793V499.775z"/>
</g>
<g>
	<path fill="#FFFFFF" d="M65.898,380.196h-20.4v57.8h-13.7v-57.8h-20.5v-12.2h54.6V380.196z"/>
	<path fill="#FFFFFF" d="M112.297,408.696h-25.6v29.3h-13.7v-70h13.7v28.5h25.6v-28.5h13.7v70h-13.7V408.696z"/>
	<path fill="#FFFFFF" d="M138.096,367.996h41.5v12.2h-27.8v16.3h25.3v12.2h-25.3v17.1h28.3v12.2h-42V367.996z"/>
</g>
<g>
	<path fill="#FFFFFF" d="M11.5,568.021c2.94-0.559,6.177-0.998,9.713-1.313c3.534-0.314,7.051-0.473,10.552-0.473
		c3.639,0,7.297,0.299,10.973,0.893c3.675,0.596,6.982,1.785,9.922,3.57s5.337,4.271,7.192,7.455
		c1.854,3.186,2.783,7.334,2.783,12.442c0,4.62-0.806,8.522-2.415,11.708c-1.611,3.186-3.746,5.793-6.405,7.822
		c-2.661,2.031-5.688,3.501-9.083,4.41c-3.396,0.91-6.914,1.365-10.553,1.365c-0.351,0-0.911,0-1.68,0
		c-0.771,0-1.575-0.018-2.415-0.053c-0.84-0.035-1.664-0.088-2.467-0.158c-0.806-0.068-1.383-0.139-1.732-0.21v25.306H11.5V568.021z
		 M32.921,578.627c-1.401,0-2.73,0.053-3.99,0.157c-1.26,0.104-2.275,0.228-3.045,0.368v23.834c0.279,0.07,0.699,0.142,1.26,0.211
		c0.56,0.07,1.155,0.123,1.785,0.156c0.63,0.037,1.242,0.053,1.837,0.053c0.594,0,1.032,0,1.313,0c1.89,0,3.762-0.174,5.618-0.524
		c1.854-0.35,3.518-0.997,4.987-1.942c1.47-0.945,2.642-2.258,3.518-3.938c0.875-1.68,1.313-3.885,1.313-6.615
		c0-2.311-0.42-4.217-1.26-5.723c-0.84-1.504-1.943-2.712-3.308-3.623c-1.365-0.908-2.924-1.538-4.672-1.889
		C36.525,578.803,34.74,578.627,32.921,578.627z"/>
	<path fill="#FFFFFF" d="M106.21,624.512H83.635l-5.565,16.275H63.685l26.46-74.025h10.605l26.46,74.025h-15.12L106.21,624.512z
		 M87.31,612.961h15.75l-5.46-16.379l-2.205-11.551H94.87l-2.205,11.655L87.31,612.961z"/>
	<path fill="#FFFFFF" d="M140.02,568.021c1.61-0.279,3.342-0.541,5.198-0.787c1.854-0.244,3.709-0.437,5.565-0.578
		c1.854-0.139,3.657-0.244,5.408-0.314c1.749-0.068,3.36-0.105,4.83-0.105c3.429,0,6.807,0.315,10.133,0.945
		c3.324,0.63,6.3,1.717,8.925,3.255c2.625,1.54,4.725,3.659,6.3,6.353c1.575,2.695,2.362,6.074,2.362,10.133
		c0,6.021-1.401,10.92-4.2,14.699c-2.8,3.781-6.546,6.406-11.235,7.875l5.145,3.256l16.8,28.035h-16.59l-16.695-28.771l-7.56-1.364
		v30.135H140.02V568.021z M162.07,579.047c-1.47,0-2.924,0.035-4.357,0.105c-1.436,0.07-2.538,0.209-3.308,0.42v21.314h6.09
		c3.99,0,7.174-0.909,9.555-2.73c2.379-1.818,3.57-4.83,3.57-9.029c0-3.15-0.981-5.617-2.94-7.402
		C168.719,579.939,165.85,579.047,162.07,579.047z"/>
	<path fill="#FFFFFF" d="M256.779,580.097h-21.42v60.69h-14.385v-60.69h-21.525v-12.81h57.33V580.097z"/>
	<path fill="#FFFFFF" d="M289.013,602.461l-5.775-11.549h-0.525l1.68,11.549v38.326h-13.65v-74.025h10.5l27.825,39.165l5.565,11.235
		h0.525l-1.68-11.235v-38.64h13.65v74.024h-10.5L289.013,602.461z"/>
	<path fill="#FFFFFF" d="M346.238,567.287h43.575v12.81h-29.19v17.114h26.565v12.811h-26.565v17.955h29.715v12.811h-44.1V567.287z"
		/>
	<path fill="#FFFFFF" d="M407.557,568.021c1.61-0.279,3.342-0.541,5.198-0.787c1.854-0.244,3.709-0.437,5.565-0.578
		c1.854-0.139,3.657-0.244,5.408-0.314c1.749-0.068,3.36-0.105,4.83-0.105c3.429,0,6.807,0.315,10.133,0.945
		c3.324,0.63,6.3,1.717,8.925,3.255c2.625,1.54,4.725,3.659,6.3,6.353c1.575,2.695,2.362,6.074,2.362,10.133
		c0,6.021-1.401,10.92-4.2,14.699c-2.8,3.781-6.546,6.406-11.235,7.875l5.145,3.256l16.8,28.035h-16.59l-16.695-28.771l-7.56-1.364
		v30.135h-14.385V568.021z M429.607,579.047c-1.47,0-2.924,0.035-4.357,0.105c-1.436,0.07-2.538,0.209-3.308,0.42v21.314h6.09
		c3.99,0,7.174-0.909,9.555-2.73c2.379-1.818,3.57-4.83,3.57-9.029c0-3.15-0.981-5.617-2.94-7.402
		C436.256,579.939,433.387,579.047,429.607,579.047z"/>
	<path fill="#FFFFFF" d="M508.985,621.047c0-2.24-0.823-4.059-2.467-5.461c-1.646-1.398-3.712-2.677-6.195-3.832
		c-2.486-1.154-5.181-2.344-8.085-3.57c-2.906-1.223-5.601-2.729-8.085-4.515c-2.486-1.784-4.551-4.007-6.195-6.667
		c-1.646-2.66-2.467-6.055-2.467-10.186c0-3.57,0.594-6.668,1.785-9.293c1.189-2.625,2.888-4.811,5.093-6.563
		c2.205-1.748,4.812-3.045,7.822-3.885c3.009-0.84,6.369-1.26,10.08-1.26c4.269,0,8.295,0.367,12.075,1.103s6.894,1.804,9.345,3.202
		l-4.515,12.076c-1.541-0.98-3.851-1.873-6.931-2.678c-3.081-0.805-6.404-1.208-9.975-1.208c-3.36,0-5.933,0.666-7.717,1.995
		c-1.785,1.33-2.678,3.115-2.678,5.355c0,2.1,0.822,3.85,2.468,5.25c1.644,1.4,3.709,2.695,6.195,3.885
		c2.484,1.191,5.18,2.414,8.085,3.675c2.904,1.26,5.6,2.782,8.085,4.567c2.484,1.785,4.55,3.99,6.195,6.615
		c1.644,2.625,2.467,5.898,2.467,9.817c0,3.921-0.647,7.298-1.942,10.132c-1.296,2.836-3.115,5.198-5.46,7.088
		c-2.346,1.891-5.181,3.291-8.505,4.2c-3.325,0.909-6.982,1.365-10.972,1.365c-5.25,0-9.87-0.491-13.86-1.47
		c-3.99-0.98-6.93-1.959-8.82-2.94l4.62-12.285c0.77,0.42,1.767,0.876,2.992,1.365c1.224,0.49,2.607,0.944,4.148,1.364
		c1.539,0.42,3.166,0.771,4.882,1.051c1.714,0.28,3.481,0.42,5.302,0.42c4.269,0,7.542-0.717,9.818-2.152
		C507.847,626.176,508.985,623.986,508.985,621.047z"/>
	<path fill="#FFFFFF" d="M580.701,610.021H553.82v30.766h-14.385v-73.5h14.385v29.924h26.881v-29.924h14.385v73.5h-14.385V610.021z"
		/>
	<path fill="#FFFFFF" d="M615.769,567.287h14.386v73.5h-14.386V567.287z"/>
	<path fill="#FFFFFF" d="M650.732,568.021c2.94-0.559,6.177-0.998,9.713-1.313c3.534-0.314,7.051-0.473,10.553-0.473
		c3.639,0,7.297,0.299,10.972,0.893c3.676,0.596,6.982,1.785,9.923,3.57s5.337,4.271,7.192,7.455
		c1.854,3.186,2.782,7.334,2.782,12.442c0,4.62-0.805,8.522-2.415,11.708s-3.745,5.793-6.404,7.822
		c-2.661,2.031-5.688,3.501-9.083,4.41c-3.396,0.91-6.913,1.365-10.552,1.365c-0.352,0-0.911,0-1.681,0
		c-0.771,0-1.575-0.018-2.415-0.053s-1.663-0.088-2.467-0.158c-0.806-0.068-1.384-0.139-1.733-0.21v25.306h-14.385V568.021z
		 M672.152,578.627c-1.4,0-2.729,0.053-3.989,0.157c-1.261,0.104-2.276,0.228-3.046,0.368v23.834
		c0.279,0.07,0.699,0.142,1.261,0.211c0.56,0.07,1.154,0.123,1.785,0.156c0.63,0.037,1.241,0.053,1.837,0.053
		c0.594,0,1.032,0,1.313,0c1.89,0,3.762-0.174,5.617-0.524c1.854-0.35,3.518-0.997,4.988-1.942c1.47-0.945,2.641-2.258,3.518-3.938
		c0.874-1.68,1.313-3.885,1.313-6.615c0-2.311-0.421-4.217-1.261-5.723c-0.84-1.504-1.942-2.712-3.308-3.623
		c-1.364-0.908-2.923-1.538-4.672-1.889C675.757,578.803,673.972,578.627,672.152,578.627z"/>
</g>
</svg>
